<svg height="512" viewBox="0 0 64 64" width="512" xmlns="http://www.w3.org/2000/svg"><path d="m59 36h-2v-25a9 9 0 0 0 -18 0v1.09a6.007 6.007 0 0 0 -5 5.91v3a1 1 0 0 0 1 1h10a1 1 0 0 0 1-1v-3a6.007 6.007 0 0 0 -5-5.91v-1.09a7 7 0 0 1 14 0v25h-32.56a3.906 3.906 0 0 0 .56-2 4 4 0 0 0 -2.35-3.63 2.874 2.874 0 0 0 .35-1.37 3.009 3.009 0 0 0 -3-3h-8a3.009 3.009 0 0 0 -3 3 2.874 2.874 0 0 0 .35 1.37 4 4 0 0 0 -2.35 3.63 3.906 3.906 0 0 0 .56 2h-.56a3 3 0 0 0 0 6v6a9.014 9.014 0 0 0 9 9v2a3 3 0 0 0 6 0v-2h24v2a3 3 0 0 0 6 0v-2a9.014 9.014 0 0 0 9-9v-6a3 3 0 0 0 0-6zm-15-18v2h-8v-2a4 4 0 0 1 8 0zm-34 10h8a1 1 0 0 1 0 2h-8a1 1 0 0 1 0-2zm-1 4h10a2 2 0 0 1 0 4h-10a2 2 0 0 1 0-4zm9 27a1 1 0 0 1 -2 0v-2h2zm30 0a1 1 0 0 1 -2 0v-2h2zm9-11a7.008 7.008 0 0 1 -7 7h-36a7.008 7.008 0 0 1 -7-7v-6h50zm2-8h-54a1 1 0 0 1 0-2h54a1 1 0 0 1 0 2z"/></svg>