<?xml version="1.0" encoding="iso-8859-1"?>
<!-- Generator: Adobe Illustrator 19.0.0, SVG Export Plug-In . SVG Version: 6.00 Build 0)  -->
<svg version="1.1" id="Layer_1" xmlns="http://www.w3.org/2000/svg" xmlns:xlink="http://www.w3.org/1999/xlink" x="0px" y="0px"
	 viewBox="0 0 512 512" style="enable-background:new 0 0 512 512;" xml:space="preserve">
<g>
	<g>
		<path d="M469.333,225.088V128c0-29.397-23.936-53.333-53.333-53.333H96c-29.397,0-53.333,23.936-53.333,53.333v97.088
			C18.368,230.037,0,251.584,0,277.333v64V384v42.667c0,5.888,4.779,10.667,10.667,10.667s10.667-4.779,10.667-10.667v-32h469.333
			v32c0,5.888,4.779,10.667,10.667,10.667c5.888,0,10.667-4.779,10.667-10.667V384v-42.667v-64
			C512,251.584,493.632,230.037,469.333,225.088z M64,128c0-17.643,14.357-32,32-32h320c17.643,0,32,14.357,32,32v96h-29.355
			c2.091-5.867,2.624-12.203,1.067-18.432l-10.667-42.667c-3.563-14.272-16.341-24.235-31.04-24.235h-68.672
			c-17.643,0-32,14.357-32,32v42.667c0,3.755,0.768,7.317,1.963,10.667h-46.592c1.195-3.349,1.963-6.912,1.963-10.667v-42.667
			c0-17.643-14.357-32-32-32h-68.672c-14.699,0-27.477,9.984-31.04,24.235l-10.667,42.667c-1.557,6.229-1.024,12.565,1.067,18.432
			H64V128z M397.077,219.904c-2.027,2.603-5.099,4.096-8.405,4.096h-79.339c-5.888,0-10.667-4.779-10.667-10.667v-42.667
			c0-5.888,4.779-10.667,10.667-10.667h68.672c4.907,0,9.152,3.328,10.347,8.085l10.667,42.667
			C399.829,213.952,399.125,217.301,397.077,219.904z M213.312,170.645v42.667c0,5.888-4.779,10.667-10.667,10.667h-79.339
			c-3.307,0-6.379-1.493-8.405-4.096s-2.752-5.952-1.941-9.152l10.667-42.667c1.216-4.736,5.461-8.064,10.347-8.085h68.672
			C208.533,159.979,213.312,164.757,213.312,170.645z M490.667,373.333H21.333V352h469.333V373.333z M490.667,330.667H21.333
			v-53.333c0-17.643,14.357-32,32-32h69.995h79.339h106.667h79.339h69.995c17.643,0,32,14.357,32,32V330.667z"/>
	</g>
</g>
<g>
</g>
<g>
</g>
<g>
</g>
<g>
</g>
<g>
</g>
<g>
</g>
<g>
</g>
<g>
</g>
<g>
</g>
<g>
</g>
<g>
</g>
<g>
</g>
<g>
</g>
<g>
</g>
<g>
</g>
</svg>
